HIERARCHY
ROOT Hips
{
  OFFSET 0 0 0
  CHANNELS 6 Xposition Yposition Zposition Zrotation Yrotation Xrotation
  JOINT LeftThigh
  {
    OFFSET 8.409438 0 -5.917753
    CHANNELS 3 Zrotation Yrotation Xrotation
    JOINT LeftLeg
    {
      OFFSET 0 0 -42.358652
      CHANNELS 3 Zrotation Yrotation Xrotation
      JOINT LeftFoot
      {
        OFFSET 0 0 -39.357303
        CHANNELS 3 Zrotation Yrotation Xrotation
      }
    }
  }
  JOINT RightThigh
  {
    OFFSET -8.409438 0 -5.917753
    CHANNELS 3 Zrotation Yrotation Xrotation
    JOINT RightLeg
    {
      OFFSET 0 0 -42.358652
      CHANNELS 3 Zrotation Yrotation Xrotation
      JOINT RightFoot
      {
        OFFSET 0 0 -39.357303
        CHANNELS 3 Zrotation Yrotation Xrotation
      }
    }
  }
  JOINT SpineLow
  {
    OFFSET 0 0 4.719101
    CHANNELS 3 Zrotation Yrotation Xrotation
    JOINT SpineMid
    {
      OFFSET 0 0 12.899191
      CHANNELS 3 Zrotation Yrotation Xrotation
      JOINT Chest
      {
        OFFSET 0 0 12.899191
        CHANNELS 3 Zrotation Yrotation Xrotation
        JOINT LeftShoulder
        {
          OFFSET 7.550562 1.41573 9.438202
          CHANNELS 3 Zrotation Yrotation Xrotation
          JOINT LeftArm
          {
            OFFSET 9.155056 0 4.247191
            CHANNELS 3 Zrotation Yrotation Xrotation
            JOINT LeftForearm
            {
              OFFSET 0 0 25.771955
              CHANNELS 3 Zrotation Yrotation Xrotation
              JOINT LeftHand
              {
                OFFSET 0 0 25.197169
                CHANNELS 3 Zrotation Yrotation Xrotation
              }
            }
          }
        }
        JOINT RightShoulder
        {
          OFFSET -7.550562 1.41573 9.438202
          CHANNELS 3 Zrotation Yrotation Xrotation
          JOINT RightArm
          {
            OFFSET -9.155056 0 4.247191
            CHANNELS 3 Zrotation Yrotation Xrotation
            JOINT RightForearm
            {
              OFFSET 0 0 -25.771955
              CHANNELS 3 Zrotation Yrotation Xrotation
              JOINT RightHand
              {
                OFFSET 0 0 -25.197169
                CHANNELS 3 Zrotation Yrotation Xrotation
              }
            }
          }
        }
        JOINT Neck
        {
          OFFSET 0 0 15.101124
          CHANNELS 3 Zrotation Yrotation Xrotation
          JOINT Head
          {
            OFFSET 0 0 11.325843
            CHANNELS 3 Zrotation Yrotation Xrotation
            End Site
            {
              OFFSET 0 0 14.157303
            }
          }
        }
      }
    }
  }
}
MOTION
Frames: 13
Frame Time: 0.0
0.0  89.887642  0.0  0.817128  -14.713613  -95.094011  5.3462  -13.196901  1.377572  -2.540997  1.360892  16.115771  3.694157  1.92341  2.461152  -19.954509  11.623564  -11.878532  -16.03582  9.338616  11.437783  11.10674  1.305861  -2.341596  0.990572  -0.120836  0.413134  2.705498  -0.347138  1.124103  2.705498  -0.347138  1.124103  -16.225257  16.738469  3.616479  156.475198  41.071566  -164.366567  -5.710765  -9.67064  45.700875  90.491379  2.3417  5.394923  -14.038111  -6.833754  20.191779  91.61023  40.303305  42.363924  0.591931  13.174597  -24.099918  98.890149  11.053744  -8.981499  -10.46835  2.165804  1.846962  -7.856957  1.593288  1.422671  
0.0  89.887642  0.0  0.551604  -14.314958  -95.187452  5.395909  -13.702689  1.180273  -3.279137  1.729635  16.280265  3.845364  1.946861  2.587118  -20.308916  11.246558  -12.59394  -14.909111  9.866721  13.129409  10.625618  1.494825  -2.350972  0.963174  -0.157447  0.451856  2.62973  -0.448263  1.228626  2.62973  -0.448264  1.228625  -16.88566  16.797126  3.586624  157.022487  41.157565  -164.065026  -5.807735  -9.926096  46.520721  90.761805  2.643287  5.413029  -13.76076  -6.72658  20.201418  92.201136  40.289867  42.887762  0.065135  12.754284  -23.876855  98.995363  10.756756  -8.473725  -10.680699  2.292441  1.896547  -8.01666  1.686816  1.462839  
0.0  89.887642  0.0  0.356531  -14.023846  -95.399236  5.71194  -14.224234  1.089333  -3.819779  2.108581  16.670023  3.752861  1.919796  2.567435  -20.040138  10.956342  -12.847426  -14.775365  10.378301  14.442055  10.54692  1.825938  -2.325799  0.943612  -0.18593  0.515106  2.575224  -0.5282  1.400519  2.575224  -0.5282  1.400519  -17.701573  16.823708  3.338153  157.392612  41.020656  -163.942284  -6.588292  -10.332664  47.662099  90.97701  2.981475  4.959304  -13.645603  -6.623009  20.049505  92.946762  40.334713  43.540861  -0.169498  12.409039  -23.804183  99.153638  10.29321  -7.791385  -10.916291  2.399066  1.940502  -8.193736  1.765327  1.498612  
0.0  89.887642  0.0  0.076373  -13.624532  -95.554714  5.992225  -14.748599  0.865477  -4.302864  2.475781  17.189271  3.634412  1.830782  2.534458  -18.443403  10.786435  -12.39306  -15.983995  10.773214  15.243007  10.100872  2.166373  -2.293351  0.876745  -0.215817  0.573063  2.39129  -0.610561  1.55839  2.39129  -0.610561  1.55839  -18.659884  16.773313  2.83481  157.58301  40.669779  -164.083737  -8.477459  -10.688701  49.136932  90.806109  3.230035  4.212544  -12.370881  -6.622783  20.416208  93.070524  40.885038  44.243883  -0.754646  12.098426  -23.80978  99.350426  9.626229  -6.863102  -10.936746  2.517554  2.043782  -8.209767  1.85232  1.578274  
0.0  89.887642  0.0  -0.159647  -13.198706  -95.703337  6.431766  -15.331711  0.608141  -4.876956  2.867225  17.696331  3.476341  1.735261  2.483955  -18.093996  10.340915  -12.324719  -15.956044  11.129569  15.994197  9.927602  2.507461  -2.131323  0.782385  -0.243597  0.636899  2.132057  -0.686316  1.732866  2.132057  -0.686316  1.732866  -19.754004  16.710703  2.138205  157.632741  40.160017  -164.269544  -11.626602  -10.83009  50.963528  90.342244  3.318202  3.476829  -11.957981  -6.623842  20.29007  93.938496  41.103182  45.036202  -0.879248  12.049121  -23.803242  99.395361  8.837505  -5.684137  -10.97278  2.605825  2.035573  -8.236954  1.918582  1.573841  
0.0  89.887642  0.0  -0.357802  -12.828672  -95.910706  7.056455  -15.861773  0.42865  -5.424687  3.239618  18.20516  3.199808  1.588561  2.36407  -17.667099  9.84835  -12.219142  -15.772191  11.447454  16.64518  9.714534  2.837852  -1.937689  0.64822  -0.259986  0.709159  1.764112  -0.729523  1.931358  1.764112  -0.729523  1.931358  -20.653186  16.483458  1.582448  157.568155  39.522433  -164.131959  -15.841885  -10.671551  53.011388  89.592342  3.378821  2.742876  -11.269815  -6.724235  20.234475  95.043453  41.348891  45.927697  -1.166336  12.013778  -23.648053  99.246304  8.053698  -4.410454  -10.768825  2.696244  2.019657  -8.084143  1.987355  1.562587  
0.0  89.887642  0.0  -0.589444  -12.489607  -96.084269  7.650268  -16.469343  0.303837  -5.925534  3.531132  18.589745  2.894967  1.444314  2.286073  -17.119195  9.360763  -12.085629  -15.572489  11.632273  17.218332  9.438788  3.065284  -1.752996  0.491491  -0.293333  0.788431  1.333777  -0.817683  2.149134  1.333777  -0.817683  2.149134  -21.560144  16.1522  1.028877  157.344776  38.761688  -163.732916  -20.644691  -10.195709  55.275001  88.529551  3.441973  1.692711  -10.694994  -6.838178  20.017813  96.196118  41.728898  46.813693  -1.157015  11.983714  -23.419284  98.932272  7.272875  -3.166233  -10.50922  2.77316  1.91477  -7.889157  2.047689  1.484045  
0.0  89.887642  0.0  -0.821355  -12.41567  -96.277827  8.222776  -17.030331  0.334613  -6.391976  3.756222  18.767067  2.578368  1.282424  2.195716  -16.531478  8.919149  -11.853889  -15.276987  11.643923  17.550339  9.213061  3.189683  -1.572825  0.303284  -0.346246  0.87227  0.816438  -0.957208  2.380032  0.816438  -0.957208  2.380031  -22.289801  15.834137  0.313202  156.914946  37.928  -163.292133  -25.844077  -9.155445  57.606825  87.306597  3.458514  0.251442  -9.836049  -6.963721  19.819262  97.560903  42.262812  47.80858  -1.083176  11.838304  -22.956443  98.783736  6.548068  -2.046751  -10.018409  2.926609  1.773759  -7.520743  2.166595  1.378488  
0.0  89.887642  0.0  -1.021796  -12.731816  -96.470364  8.821876  -17.567655  0.583171  -6.611972  3.854818  18.863998  2.337574  1.177087  2.127354  -15.886766  8.526789  -11.634218  -14.964814  11.518035  17.660365  9.037542  3.237889  -1.385204  -0.037116  -0.437956  0.965218  -0.118925  -1.195408  2.639263  -0.118925  -1.195408  2.639263  -22.003134  15.764147  -0.863462  156.109015  36.991202  -163.027742  -31.425078  -7.365851  60.171651  85.889309  3.473054  -1.31472  -7.777284  -6.903002  19.499561  99.11873  42.902295  48.906102  -0.733237  11.723896  -22.215822  98.995699  5.894629  -0.824161  -8.713388  3.27964  1.585757  -6.541822  2.437734  1.2361  
0.0  89.887642  0.0  -1.197049  -13.571776  -96.595774  9.3317  -18.039866  0.961425  -6.827454  3.878654  18.609933  2.40376  1.158107  2.234354  -15.297727  8.220921  -11.49292  -14.549583  11.182085  17.578267  8.980763  3.20293  -1.183693  -0.368991  -0.536122  1.057358  -1.031971  -1.448943  2.898714  -1.031971  -1.448943  2.898714  -21.520346  15.745292  -2.202291  154.927086  36.014512  -162.786231  -37.35365  -4.959778  62.951053  84.316093  3.526281  -2.695086  -5.474603  -6.892715  19.115623  100.976881  43.610724  50.091814  0.06186  11.893814  -21.145903  99.526747  5.225446  0.620758  -7.172584  3.707782  1.399091  -5.386088  2.764891  1.092702  
0.0  89.887642  0.0  -1.333787  -14.997389  -96.73305  9.703613  -18.42612  1.543975  -6.280745  3.783221  18.612849  2.357311  1.119659  2.209816  -14.65739  7.993836  -11.337443  -14.112707  10.694415  17.360499  9.090035  3.08355  -1.031007  -0.585548  -0.598268  1.097689  -1.627609  -1.60823  3.015257  -1.627609  -1.60823  3.015257  -21.295975  15.594721  -3.05044  153.666554  34.986109  -162.215231  -43.163877  -1.925731  65.764522  82.863909  3.390683  -3.961836  -3.635151  -7.118419  19.038934  103.296226  44.286284  51.333322  1.409559  12.43338  -19.678719  100.155698  4.493799  2.212516  -5.656573  4.060443  1.513121  -4.250749  3.031664  1.172124  
0.0  89.887642  0.0  -1.491025  -16.976739  -96.813825  9.967591  -18.739697  2.270327  -5.601307  3.616466  18.419148  2.630943  1.141327  2.329494  -13.854721  7.749387  -11.283682  -13.72788  10.090985  17.132832  9.428808  2.876254  -0.852581  -0.701644  -0.633382  1.097773  -1.946567  -1.698858  3.019353  -1.946567  -1.698858  3.019353  -21.279059  15.225133  -3.610935  152.619908  33.865143  -161.200307  -48.054199  1.485053  68.630673  81.318432  3.227793  -5.418081  -2.138751  -7.69641  19.142386  106.299179  44.838915  52.860473  3.177835  13.1587  -17.801687  100.635494  3.790187  3.707482  -4.162753  4.318757  1.835982  -3.133613  3.226782  1.405878  
0.0  89.887642  0.0  -1.698935  -19.606417  -96.75024  10.258193  -18.974461  3.075191  -4.255463  3.310503  18.402803  2.820941  1.129427  2.343544  -12.712963  7.389356  -11.432001  -13.362914  9.349158  16.941187  9.861677  2.665742  -0.597219  -0.728501  -0.663897  1.080157  -2.020934  -1.781552  2.972858  -2.020934  -1.781552  2.972858  -21.510894  14.791187  -3.986841  151.972797  32.894232  -159.737192  -51.409609  5.168769  71.702826  79.63535  3.055269  -7.744  -0.944376  -8.481592  19.082054  110.166165  45.036664  54.653168  5.15044  13.760601  -15.526731  100.887382  3.274681  4.999919  -2.638152  4.482073  2.199549  -1.993794  3.352192  1.668239  
